<svg version="1.0" xmlns="http://www.w3.org/2000/svg" width="584" height="161" viewBox="0 0 5840 1610"><g fill="#09d3ac"><path d="M242 1367L0 1125v-56c0-31 20-197 45-370l45-314 193-192C430 44 481 0 500 0c20 0 79 54 268 243 133 133 242 249 242 257s-64 79-142 157L725 800l193 193c105 106 192 198 192 205 0 13-592 412-612 412-7 0-122-109-256-243zM2385 1396c-69-17-151-63-186-106-16-19-39-60-51-90-22-53-23-69-26-489-2-239-1-445 2-457 10-37 59-57 127-52 104 8 98-24 101 462 3 402 4 423 24 460 26 51 74 76 142 76 69 0 116-22 144-69 23-36 23-39 26-462 3-492-4-459 101-467 67-5 117 15 126 51 4 13 5 219 3 458-3 421-4 436-25 489-13 30-36 71-52 91-36 43-127 93-199 108-68 14-193 13-257-3zM4964 1391c-46-21-54-35-54-91 0-32 114-417 281-953l40-129 42-19c56-25 148-25 204 0l42 20 40 128c148 476 243 793 247 826 3 22 12 50 21 63 33 51-13 157-73 169-74 13-151-49-168-136-3-21-13-42-20-48-8-6-16-25-20-41l-5-30h-330l-15 55c-9 30-23 81-32 113-9 31-25 65-36 75-27 23-111 22-164-2zm516-448c0-9-101-367-105-371-3-3-105 354-105 368 0 6 39 10 105 10 58 0 105-3 105-7zM1247 1380l-27-21V801c0-555 0-558 21-577 20-18 39-19 273-19 243 0 253 1 303 24 61 27 115 82 134 137 8 23 14 78 14 134-1 110-26 183-79 226-22 19-27 27-17 31 33 13 91 78 108 121 25 66 25 255-1 331-24 69-81 132-149 162-49 23-64 24-302 27-243 3-252 3-278-18zm407-189c79-19 126-106 112-207-15-109-54-136-208-142l-108-4v362h83c45 0 99-5 121-9zm33-557c15-11 35-40 43-62 13-37 13-47 0-84-24-67-52-80-175-86l-105-5v265l104-4c87-2 109-7 133-24zM3116 1379l-26-20V802c0-306 4-562 8-569 31-49 196-40 216 12 3 9 6 228 6 486v469h420l16 25c23 35 16 142-11 161-15 11-80 14-311 14-280 0-292-1-318-21zM3903 1380l-33-20V261l23-27c20-23 34-28 84-32 70-5 109 11 147 60 13 18 66 110 117 203 51 94 95 174 99 178 4 5 51-72 105-170s109-193 123-212c31-41 76-61 142-61 44 0 56 5 81 29l29 29v550c0 529-1 550-19 566-36 33-143 33-187 2-18-14-19-34-24-350l-5-336-83 149c-46 83-90 155-97 161-24 20-83 24-109 6-15-9-58-79-108-173l-83-158-5 345c-3 190-7 346-8 347s-15 9-32 18c-41 21-118 19-157-5z"/></g><g fill="#fff"><path d="M2385 1396c-69-17-151-63-186-106-16-19-39-60-51-90-22-53-23-69-26-489-2-239-1-445 2-457 10-37 59-57 127-52 104 8 98-24 101 462 3 402 4 423 24 460 26 51 74 76 142 76 69 0 116-22 144-69 23-36 23-39 26-462 3-492-4-459 101-467 67-5 117 15 126 51 4 13 5 219 3 458-3 421-4 436-25 489-13 30-36 71-52 91-36 43-127 93-199 108-68 14-193 13-257-3zM4964 1391c-46-21-54-35-54-91 0-32 114-417 281-953l40-129 42-19c56-25 148-25 204 0l42 20 40 128c148 476 243 793 247 826 3 22 12 50 21 63 33 51-13 157-73 169-74 13-151-49-168-136-3-21-13-42-20-48-8-6-16-25-20-41l-5-30h-330l-15 55c-9 30-23 81-32 113-9 31-25 65-36 75-27 23-111 22-164-2zm516-448c0-9-101-367-105-371-3-3-105 354-105 368 0 6 39 10 105 10 58 0 105-3 105-7zM1247 1380l-27-21V801c0-555 0-558 21-577 20-18 39-19 273-19 243 0 253 1 303 24 61 27 115 82 134 137 8 23 14 78 14 134-1 110-26 183-79 226-22 19-27 27-17 31 33 13 91 78 108 121 25 66 25 255-1 331-24 69-81 132-149 162-49 23-64 24-302 27-243 3-252 3-278-18zm407-189c79-19 126-106 112-207-15-109-54-136-208-142l-108-4v362h83c45 0 99-5 121-9zm33-557c15-11 35-40 43-62 13-37 13-47 0-84-24-67-52-80-175-86l-105-5v265l104-4c87-2 109-7 133-24zM3116 1379l-26-20V802c0-306 4-562 8-569 31-49 196-40 216 12 3 9 6 228 6 486v469h420l16 25c23 35 16 142-11 161-15 11-80 14-311 14-280 0-292-1-318-21zM3903 1380l-33-20V261l23-27c20-23 34-28 84-32 70-5 109 11 147 60 13 18 66 110 117 203 51 94 95 174 99 178 4 5 51-72 105-170s109-193 123-212c31-41 76-61 142-61 44 0 56 5 81 29l29 29v550c0 529-1 550-19 566-36 33-143 33-187 2-18-14-19-34-24-350l-5-336-83 149c-46 83-90 155-97 161-24 20-83 24-109 6-15-9-58-79-108-173l-83-158-5 345c-3 190-7 346-8 347s-15 9-32 18c-41 21-118 19-157-5z"/></g></svg>