<svg xmlns="http://www.w3.org/2000/svg" width="115" height="115" viewBox="0 0 3610 3610"><g fill="#8357c9"><path d="M1005 3339c-398-58-749-325-907-691-75-175-104-339-95-548 22-537 375-972 890-1101 106-26 333-36 447-20 229 34 453 137 618 286l52 47-41 49c-22 27-46 49-53 49s-23-12-37-26c-41-44-152-121-235-164-165-85-313-115-516-107-165 6-254 29-403 102-296 145-495 403-561 725-13 64-15 119-12 254 5 148 9 183 32 260 85 283 259 499 510 632 382 203 829 154 1158-128 31-26 60-48 65-48s29 21 53 46l45 46-50 45c-256 230-621 341-960 292zM3050 2759c-81-14-177-65-235-124-103-105-148-237-149-435-1-145 11-203 64-315 118-247 407-351 647-234 146 71 232 246 233 472v87h-790v48c0 26 6 70 14 97 55 207 220 312 431 276 74-13 180-57 231-96 18-14 35-25 39-25 3 0 5 35 3 77l-3 77-65 32c-36 18-92 40-124 48-76 20-225 28-296 15zm405-731c-22-162-102-261-232-288-183-38-355 95-396 308l-6 32h641l-7-52z"/><path d="M2000 2185v-555h150v195l30-51c37-65 108-128 167-148 52-18 148-21 187-6 25 9 26 13 26 85 0 41-3 75-7 75-5-1-19-7-33-15-38-22-143-19-189 4-75 39-129 121-162 248-17 68-19 112-19 400v323h-150v-555zM1053 679c-28-8-33-14-33-40s3-30 18-24c97 42 156 42 198 0 51-51 24-99-101-174-91-56-122-98-111-155 14-76 75-116 175-116 77 0 91 6 91 40v27l-45-15c-56-18-109-9-141 23-49 49-22 103 82 161 112 63 144 111 124 186-11 39-42 72-83 87-34 13-129 13-174 0zM1754 676c-12-31 0-51 30-51 36 0 56 26 37 49-17 20-60 21-67 2zM510 678c0-2 43-113 94-248 92-240 95-245 124-248 21-2 31 2 37 15 3 10 43 112 87 228s84 220 89 233c8 20 6 22-24 22-31 0-33-3-58-73l-25-72-105-3-104-3-26 73c-24 68-28 73-57 76-18 2-32 2-32 0zm300-195c0-16-75-213-81-213-8 0-79 187-79 206 0 11 18 14 80 14 44 0 80-3 80-7zM1430 430V180h95c155 0 197 29 203 138 2 54-1 73-17 99-29 47-88 73-161 73h-60v190h-60V430zm198-7c41-30 56-68 46-116-12-55-48-80-124-85l-60-4v234l55-4c34-3 66-13 83-25zM1940 430V180h33c30 1 39 10 167 196 74 108 138 198 142 200 5 3 8-85 8-195V180h50v500h-28c-25 0-42-21-162-195-74-107-138-194-142-195-5 0-8 88-8 195v195h-60V430zM2480 430V180h130c123 0 130 1 130 20s-7 20-100 20h-100v190h90c83 0 90 1 90 20s-7 20-90 20h-90v190h105c98 0 105 1 105 20s-7 20-135 20h-135V430zM2950 450V220h-75c-68 0-75-2-75-20 0-19 7-20 175-20s175 1 175 20c0 18-7 20-75 20h-75v460h-50V450z"/></g><g fill="#00c6ff"><path d="M726 2850c-50-45-71-107-71-215 0-49 4-115 8-145l9-55-66-23c-69-25-168-84-206-123-69-72-80-149-31-215 15-22 43-53 62-69 34-28 206-115 229-115 9 0 10-13 3-52-4-29-8-98-8-153 0-87 3-107 25-150 14-28 40-60 60-73 73-49 218-10 342 91 32 26 62 47 68 47s36-21 67-46c86-71 184-114 256-114 75 0 108 19 144 84 25 47 28 60 28 161 0 61-3 130-8 155l-7 45 64 23c112 40 234 130 257 189 5 13 9 45 9 71 0 59-29 105-99 156-51 38-191 106-217 106-12 0-13 7-7 38 4 20 8 91 8 157 0 105-3 126-23 167-31 63-73 88-146 88-71 0-162-40-252-110-35-27-67-50-72-50s-20 9-33 21c-43 38-138 99-185 119-29 13-68 20-109 20-57 0-68-3-99-30zm208-85c61-31 145-95 146-111 0-6-28-45-62-87-52-64-68-77-93-77-16 0-59-7-95-15-36-7-68-10-72-6-12 11-22 182-14 234 4 25 17 58 28 72 19 24 26 27 65 22 23-2 67-17 97-32zm593 13c33-35 46-131 33-231-7-45-13-83-14-85-2-1-35 4-75 13-40 8-84 15-99 16-21 0-40 16-87 76-33 42-61 80-63 84-5 13 120 102 177 125 71 30 102 30 128 2zm-334-234c16-19 27-38 24-40-2-3-35-4-73-2l-68 3 33 38c18 20 38 37 45 37 6 0 24-16 39-36zm61-130c43-6 48-10 84-68 22-33 53-89 71-123l32-61-31-63c-18-34-51-91-73-126l-42-63h-290l-23 36c-13 20-31 50-41 67-10 18-32 58-50 89l-33 57 43 78c74 138 100 172 134 176 53 7 171 7 219 1zm-396-77c-18-31-36-57-40-57-6 0-40 91-35 95 4 4 102 21 105 19 1-1-12-27-30-57zm657 16c-10-40-24-73-32-73-7 0-63 98-63 111 0 3 23 1 51-5 45-9 50-12 44-33zm-809-30c4-16 18-57 32-92l25-64-34-98c-39-114-28-110-154-49-87 42-140 89-151 133-6 25 0 34 44 77 45 43 77 62 182 108 39 17 49 14 56-15zm987-3c123-52 199-126 183-178-10-30-53-70-116-106-55-32-149-71-154-65-11 16-59 169-59 189 0 35 56 190 68 190 6 0 41-14 78-30zm-844-324c17-29 31-57 31-60 0-7-90 3-99 10-3 3 31 104 35 104 2 0 16-24 33-54zm666-28c6-24 4-26-40-32-26-4-49-6-51-3-2 2 10 30 28 62l32 59 12-30c7-17 16-43 19-56zm-632-129c71-11 80-15 104-48 15-20 45-55 67-79l39-42-28-23c-72-57-143-99-194-114-48-14-59-14-81-2-14 8-30 30-37 49-13 39-16 146-6 228 6 51 7 54 32 48 14-3 61-10 104-17zm671-25c11-82 7-203-8-239-22-51-54-62-120-42-53 17-159 82-191 118-17 18-16 20 8 51 14 18 41 51 61 73s36 43 36 48c0 4 12 7 28 7 15 1 54 7 87 14 93 21 91 22 99-30zm-334-1c0-11-59-73-69-73-9 0-71 66-71 75 0 3 32 5 70 5 39 0 70-3 70-7z"/><path d="M1091 2304c-73-31-112-107-92-180 38-140 225-160 292-32 39 77 9 165-71 206-51 25-81 27-129 6z"/></g></svg>